<?xml version="1.0" standalone="no"?>
<!DOCTYPE svg PUBLIC "-//W3C//DTD SVG 20010904//EN"
 "http://www.w3.org/TR/2001/REC-SVG-20010904/DTD/svg10.dtd">
<svg version="1.0" xmlns="http://www.w3.org/2000/svg"
 width="700.000000pt" height="700.000000pt" viewBox="0 0 700.000000 700.000000"
 preserveAspectRatio="xMidYMid meet">
<metadata>
Created by potrace 1.11, written by Peter Selinger 2001-2013
</metadata>
<g transform="translate(0.000000,700.000000) scale(0.100000,-0.100000)"
fill="#000000" stroke="none">
<path d="M1410 6993 c-405 -39 -726 -191 -990 -470 -188 -197 -323 -451 -380
-712 -40 -183 -41 -244 -38 -2386 4 -2324 -3 -2132 79 -2378 78 -238 190 -419
369 -597 222 -222 477 -358 795 -423 99 -20 125 -21 2170 -24 1310 -3 2110 0
2180 6 280 25 524 111 750 265 118 80 303 265 382 381 123 182 213 405 250
615 17 99 18 219 18 2230 0 2019 -1 2130 -18 2230 -99 562 -492 1018 -1028
1193 -95 32 -208 54 -329 67 -87 9 -4120 12 -4210 3z m2490 -1497 c322 -69
637 -216 875 -409 78 -63 231 -215 295 -293 235 -284 391 -639 445 -1009 22
-146 21 -425 0 -569 -65 -433 -248 -810 -544 -1119 -294 -307 -652 -504 -1079
-594 -120 -25 -142 -27 -392 -27 -250 0 -272 2 -392 27 -397 84 -731 258
-1011 526 -336 323 -545 727 -612 1186 -21 146 -21 424 0 570 53 362 199 701
425 985 77 96 255 273 345 341 220 168 476 292 743 360 201 51 274 58 537 55
214 -3 254 -7 365 -30z"/>
</g>
</svg>
